# xmcd
#
# Track frame offsets: 
#        150
#        14326
#        35565
#        48209
#        65843
#        83307
#        106612
#        127208
#        139333
#        160117
#        178493
#
# Disc length: 2710 seconds
#
# Revision: 0
# Processed by: cddbd v1.5.2PL0 Copyright (c) Steve Scherf et al.
# Submitted via: ExactAudioCopy v0.99pb3
#
DISCID=930a940b
DTITLE=South Austin Jug Band - Strange Invitation
DYEAR=2007
DGENRE=Bluegrass
TTITLE0=Come To Me
TTITLE1=Fall So Fast
TTITLE2=Trek Of Beandip Perkins
TTITLE3=Dive Bar
TTITLE4=Jack-Ass
TTITLE5=Chicago
TTITLE6=Neutral Ground
TTITLE7=Po' Boys In The Glovebox
TTITLE8=Wheatfield With Crows
TTITLE9=Avenue Of The Americas
TTITLE10=Reprise
EXTD=
EXTT0=
EXTT1=
EXTT2=
EXTT3=
EXTT4=
EXTT5=
EXTT6=
EXTT7=
EXTT8=
EXTT9=
EXTT10=
PLAYORDER=
